# Blender v2.83.4 OBJ File: 'diorama.blend'
# www.blender.org
mtllib smallglacier.mtl
o ice_blocks.004_Cube.017
v -62.279984 -8.353092 12.529789
v -62.158642 -15.871933 12.098088
v -62.173203 -8.844704 -3.711810
v -62.230602 -15.074192 -3.979247
v -45.865105 -8.581285 13.423084
v -45.230007 -16.379921 14.273551
v -44.770836 -8.789693 -3.588913
v -44.212063 -15.004791 -5.127373
v -62.124065 -12.777625 12.103193
v -62.830364 -12.168430 -4.492102
v -44.383072 -12.130882 -3.923444
v -44.346252 -12.215177 14.127936
v -53.636074 -8.733282 -3.868299
v -53.238533 -16.185379 -3.965034
v -52.489647 -9.570893 15.110262
v -53.852131 -15.052549 14.321131
v -54.543049 -12.452195 13.083395
v -53.766640 -12.879270 -4.430366
v -63.042614 -10.128143 -4.313985
v -44.346252 -10.368708 -4.810201
v -44.346252 -10.368708 14.127936
v -62.007030 -11.028879 11.903578
v -54.490505 -10.834751 -3.618522
v -55.068851 -10.287962 13.335461
v -62.821823 -14.883536 13.388083
v -63.327126 -13.941030 -3.683635
v -44.346252 -14.060809 -4.810201
v -44.346252 -14.060809 14.127936
v -54.110428 -13.974933 14.147187
v -53.815319 -14.060809 -4.810201
v -58.628250 -8.933037 -3.989170
v -58.549854 -15.908113 14.127936
v -59.074623 -12.130671 13.414977
v -58.549854 -15.908113 -4.810201
v -57.856339 -9.822955 14.538804
v -58.498566 -12.713852 -4.494404
v -57.943035 -11.059889 -2.622360
v -59.009529 -10.403957 13.057829
v -58.549854 -14.060809 -4.810201
v -58.549625 -14.010964 14.139560
v -48.991264 -15.443353 -3.072260
v -49.438774 -9.215525 13.712175
v -48.752434 -12.284591 -4.100690
v -49.080784 -8.522240 -4.810201
v -49.117596 -15.052549 14.321131
v -49.080784 -12.215177 14.127936
v -50.836823 -11.119185 13.026202
v -49.080784 -10.368708 -4.810201
v -49.376122 -14.024778 14.135564
v -49.080784 -14.060809 -4.810201
v -63.907284 -9.108700 4.990554
v -62.757492 -15.491153 5.074345
v -44.616730 -9.386201 4.960279
v -44.279156 -15.456452 4.500281
v -45.642921 -12.257318 5.268335
v -63.994968 -12.771564 6.860501
v -53.351448 -16.132492 4.486604
v -53.535843 -9.032866 4.633804
v -63.382545 -10.506834 4.368421
v -43.036572 -11.656136 3.529150
v -44.346252 -14.060809 4.658868
v -63.579632 -14.379447 4.864688
v -58.549854 -8.522240 4.658868
v -58.549854 -15.908113 4.658868
v -49.036026 -15.675734 5.527839
v -48.796444 -9.395739 4.883851
v -62.494049 -15.282672 0.547548
v -44.346252 -8.522240 -0.075666
v -63.654701 -12.288340 0.589559
v -63.808918 -10.425137 0.304923
v -63.571011 -14.660936 0.193559
v -62.979973 -8.700912 -0.467549
v -44.245609 -15.230621 -0.313545
v -43.782692 -12.432527 -1.115009
v -53.815319 -15.908113 -0.075666
v -53.638706 -8.911819 -0.632666
v -43.472725 -11.503565 -0.830227
v -44.346252 -14.060809 -0.075666
v -58.549854 -8.522240 -0.075666
v -58.549854 -15.908113 -0.075666
v -49.013645 -15.559543 1.227789
v -49.080784 -8.522240 -0.075666
v -63.284386 -8.522240 9.393402
v -44.312706 -15.682283 9.314109
v -44.153191 -12.132402 9.310252
v -53.815319 -15.908113 9.393402
v -53.970261 -7.717349 9.214825
v -42.523361 -11.581121 7.778674
v -44.807404 -13.893860 9.694714
v -58.549854 -8.522240 9.393402
v -58.549854 -15.908113 9.393402
v -49.058403 -15.791924 9.827888
v -49.937035 -8.502423 9.797785
v -63.020943 -15.699633 9.601141
v -44.555916 -8.850660 9.613064
v -63.275795 -12.589333 9.439941
v -63.284386 -10.368708 9.393402
v -63.284386 -14.060809 9.393402
vt 0.562472 0.187500
vt 0.562472 0.250000
vt 0.625000 0.250000
vt 0.625000 0.187500
vt 0.562472 0.437500
vt 0.562472 0.500000
vt 0.625000 0.500000
vt 0.625000 0.437500
vt 0.562472 0.687500
vt 0.562472 0.750000
vt 0.625000 0.750000
vt 0.625000 0.687500
vt 0.562472 0.937500
vt 0.562472 1.000000
vt 0.625000 1.000000
vt 0.625000 0.937500
vt 0.312500 0.687500
vt 0.312500 0.750000
vt 0.375000 0.750000
vt 0.375000 0.687500
vt 0.812500 0.687500
vt 0.812500 0.750000
vt 0.875000 0.750000
vt 0.875000 0.687500
vt 0.437500 0.937500
vt 0.437500 1.000000
vt 0.500000 1.000000
vt 0.500000 0.937500
vt 0.437500 0.687500
vt 0.437500 0.750000
vt 0.500000 0.750000
vt 0.500000 0.687500
vt 0.437500 0.437500
vt 0.437500 0.500000
vt 0.500000 0.500000
vt 0.500000 0.437500
vt 0.437500 0.187500
vt 0.437500 0.250000
vt 0.500000 0.250000
vt 0.500000 0.187500
vt 0.437500 0.312500
vt 0.437500 0.375000
vt 0.500000 0.375000
vt 0.500000 0.312500
vt 0.437500 0.812500
vt 0.437500 0.875000
vt 0.500000 0.875000
vt 0.500000 0.812500
vt 0.687500 0.687500
vt 0.687500 0.750000
vt 0.750000 0.750000
vt 0.750000 0.687500
vt 0.187500 0.687500
vt 0.187500 0.750000
vt 0.250000 0.750000
vt 0.250000 0.687500
vt 0.562472 0.812500
vt 0.562472 0.875000
vt 0.625000 0.875000
vt 0.625000 0.812500
vt 0.562472 0.312500
vt 0.562472 0.375000
vt 0.625000 0.375000
vt 0.625000 0.312500
vt 0.375000 0.812500
vt 0.375000 0.875000
vt 0.375000 0.312500
vt 0.375000 0.375000
vt 0.375000 0.187500
vt 0.375000 0.250000
vt 0.375000 0.437500
vt 0.375000 0.500000
vt 0.375000 0.937500
vt 0.375000 1.000000
vt 0.125000 0.687500
vt 0.125000 0.750000
vt 0.250000 0.562500
vt 0.250000 0.625000
vt 0.312500 0.625000
vt 0.312500 0.562500
vt 0.625000 0.562500
vt 0.625000 0.625000
vt 0.687500 0.625000
vt 0.687500 0.562500
vt 0.750000 0.562500
vt 0.750000 0.625000
vt 0.812500 0.625000
vt 0.812500 0.562500
vt 0.125000 0.562500
vt 0.125000 0.625000
vt 0.187500 0.625000
vt 0.187500 0.562500
vt 0.500000 0.062500
vt 0.500000 0.125000
vt 0.562472 0.125000
vt 0.562472 0.062500
vt 0.500000 0.562500
vt 0.500000 0.625000
vt 0.562472 0.625000
vt 0.562472 0.562500
vt 0.375000 0.562500
vt 0.375000 0.625000
vt 0.437500 0.625000
vt 0.437500 0.562500
vt 0.375000 0.062500
vt 0.375000 0.125000
vt 0.437500 0.125000
vt 0.437500 0.062500
vt 0.875000 0.625000
vt 0.875000 0.562500
vt 0.625000 0.125000
vt 0.625000 0.062500
vt 0.312500 0.500000
vt 0.812500 0.500000
vt 0.875000 0.500000
vt 0.687500 0.500000
vt 0.750000 0.500000
vt 0.187500 0.500000
vt 0.250000 0.500000
vt 0.125000 0.500000
vt 0.562472 -0.000000
vt 0.625000 0.000000
vt 0.437500 0.000000
vt 0.500000 0.000000
vt 0.375000 0.000000
vn -0.6214 -0.7738 -0.1230
vn -0.1564 -0.5257 -0.8362
vn 0.9946 -0.0965 0.0394
vn -0.2555 -0.4457 0.8580
vn -0.0290 0.9981 0.0543
vn -0.0256 -0.9995 -0.0208
vn -0.4020 0.1653 0.9006
vn 0.8652 -0.4587 0.2026
vn 0.0246 -0.3964 -0.9178
vn -0.9815 -0.0967 -0.1651
vn -0.0962 0.5817 -0.8077
vn -0.0610 0.2115 0.9755
vn 0.0044 -0.9860 0.1670
vn -0.1125 0.9494 0.2934
vn 0.0021 0.1688 0.9856
vn 0.0768 -0.1968 -0.9774
vn 0.1014 -0.7584 0.6438
vn -0.0788 -0.3532 -0.9322
vn -0.8630 0.4781 -0.1633
vn 0.1356 0.3476 -0.9278
vn 0.7951 0.5851 0.1598
vn -0.3958 -0.4211 0.8161
vn 0.0112 0.2648 -0.9642
vn -0.1016 0.3007 0.9483
vn -0.3268 0.4367 0.8382
vn 0.9828 -0.1818 -0.0334
vn 0.0112 0.3948 -0.9187
vn -0.9901 0.0877 -0.1098
vn 0.0468 0.4750 0.8787
vn -0.1314 -0.1321 -0.9825
vn 0.0033 -0.9302 0.3671
vn 0.1316 -0.2236 -0.9657
vn -0.2239 0.0143 -0.9745
vn 0.1346 0.9851 0.1070
vn 0.2257 0.4566 -0.8606
vn 0.0070 0.0278 0.9996
vn 0.0882 -0.9922 0.0882
vn -0.0270 0.0521 0.9983
vn 0.0107 0.3444 -0.9388
vn 0.0008 0.0020 1.0000
vn -0.2082 -0.0168 -0.9779
vn -0.0808 0.0025 0.9967
vn 0.0206 0.0946 0.9953
vn -0.1403 -0.9901 -0.0101
vn -0.1126 0.2888 0.9508
vn -0.0828 0.0038 -0.9966
vn 0.0859 0.9680 0.2359
vn 0.1278 -0.5723 -0.8100
vn -0.0113 0.9952 0.0972
vn 0.0474 -0.9982 -0.0372
vn -0.0230 -0.9995 -0.0230
vn -0.0781 0.9964 0.0328
vn -0.9614 -0.2287 0.1533
vn 0.9615 0.2251 0.1573
vn 0.9101 0.4133 0.0287
vn -0.9805 -0.1755 0.0885
vn 0.0910 0.9958 0.0111
vn 0.0989 -0.9942 -0.0431
vn -0.9776 0.1866 0.0972
vn 0.4895 -0.8695 0.0667
vn -0.1301 -0.9912 -0.0260
vn -0.0025 0.9852 0.1713
vn 0.9979 0.0645 0.0050
vn -0.9305 -0.3661 0.0077
vn 0.9940 0.1088 0.0061
vn 0.0341 0.9988 -0.0341
vn -0.1930 -0.9808 -0.0276
vn 0.9532 -0.1775 -0.2445
vn 0.1130 -0.9932 0.0278
vn 0.0177 0.9993 -0.0327
vn 0.9386 0.3215 -0.1254
vn 0.9852 -0.1495 -0.0844
vn -0.0102 0.9969 -0.0783
vn -0.0301 -0.9991 0.0301
vn 0.0662 -0.9971 -0.0370
vn -0.0648 0.9976 0.0223
vn -0.9940 -0.1044 -0.0336
vn -0.9944 0.0946 -0.0475
vn -0.9926 0.1202 0.0148
vn -0.6718 -0.7406 -0.0140
vn -0.9172 -0.3768 0.1294
vn -0.9007 0.0514 0.4313
vn -0.9251 -0.1063 0.3646
vn -0.9241 0.2745 0.2657
vn 0.1459 0.9686 -0.2011
vn 0.0285 -0.9989 -0.0373
vn -0.0222 -0.9995 0.0222
vn -0.0599 0.9964 -0.0599
vn 0.9761 0.1833 -0.1165
vn 0.7773 0.6222 -0.0928
vn -0.0333 0.9894 -0.1413
vn 0.0606 -0.9981 0.0149
vn 0.2378 -0.9707 -0.0340
vn -0.0736 -0.9970 -0.0245
vn 0.0334 0.9890 -0.1439
vn 0.9850 0.1652 0.0505
usemtl Material.017
s off
f 71/1/1 26/2/1 4/3/1 67/4/1
f 50/5/2 27/6/2 8/7/2 41/8/2
f 89/9/3 28/10/3 6/11/3 84/12/3
f 40/13/4 25/14/4 2/15/4 32/16/4
f 93/17/5 42/18/5 5/19/5 95/20/5
f 91/21/6 32/22/6 2/23/6 94/24/6
f 38/25/7 22/26/7 9/27/7 33/28/7
f 88/29/8 21/30/8 12/31/8 85/32/8
f 48/33/9 20/34/9 11/35/9 43/36/9
f 70/37/10 19/38/10 10/39/10 69/40/10
f 37/41/11 23/42/11 18/43/11 36/44/11
f 47/45/12 24/46/12 17/47/12 46/48/12
f 92/49/13 45/50/13 16/51/13 86/52/13
f 90/53/14 35/54/14 15/55/14 87/56/14
f 49/57/15 29/58/15 16/59/15 45/60/15
f 39/61/16 30/62/16 14/63/16 34/64/16
f 42/65/17 15/66/17 24/46/17 47/45/17
f 31/67/18 13/68/18 23/42/18 37/41/18
f 72/69/19 3/70/19 19/38/19 70/37/19
f 44/71/20 7/72/20 20/34/20 48/33/20
f 95/20/21 5/19/21 21/30/21 88/29/21
f 35/73/22 1/74/22 22/26/22 38/25/22
f 36/44/23 18/43/23 30/62/23 39/61/23
f 46/48/24 17/47/24 29/58/24 49/57/24
f 33/28/25 9/27/25 25/14/25 40/13/25
f 85/32/26 12/31/26 28/10/26 89/9/26
f 43/36/27 11/35/27 27/6/27 50/5/27
f 69/40/28 10/39/28 26/2/28 71/1/28
f 17/47/29 33/28/29 40/13/29 29/58/29
f 10/39/30 36/44/30 39/61/30 26/2/30
f 15/66/31 35/73/31 38/25/31 24/46/31
f 3/70/32 31/67/32 37/41/32 19/38/32
f 26/2/33 39/61/33 34/64/33 4/3/33
f 83/75/34 1/76/34 35/54/34 90/53/34
f 19/38/35 37/41/35 36/44/35 10/39/35
f 24/46/36 38/25/36 33/28/36 17/47/36
f 86/52/37 16/51/37 32/22/37 91/21/37
f 29/58/38 40/13/38 32/16/38 16/59/38
f 18/43/39 43/36/39 50/5/39 30/62/39
f 12/31/40 46/48/40 49/57/40 28/10/40
f 13/68/41 44/71/41 48/33/41 23/42/41
f 5/19/42 42/65/42 47/45/42 21/30/42
f 28/10/43 49/57/43 45/60/43 6/11/43
f 84/12/44 6/11/44 45/50/44 92/49/44
f 21/30/45 47/45/45 46/48/45 12/31/45
f 23/42/46 48/33/46 43/36/46 18/43/46
f 87/56/47 15/55/47 42/18/47 93/17/47
f 30/62/48 50/5/48 41/8/48 14/63/48
f 76/77/49 58/78/49 66/79/49 82/80/49
f 73/81/50 54/82/50 65/83/50 81/84/50
f 75/85/51 57/86/51 64/87/51 80/88/51
f 72/89/52 51/90/52 63/91/52 79/92/52
f 96/93/53 56/94/53 62/95/53 98/96/53
f 74/97/54 55/98/54 61/99/54 78/100/54
f 68/101/55 53/102/55 60/103/55 77/104/55
f 83/105/56 51/106/56 59/107/56 97/108/56
f 79/92/57 63/91/57 58/78/57 76/77/57
f 81/84/58 65/83/58 57/86/58 75/85/58
f 97/108/59 59/107/59 56/94/59 96/93/59
f 77/104/60 60/103/60 55/98/60 74/97/60
f 80/88/61 64/87/61 52/109/61 67/110/61
f 82/80/62 66/79/62 53/102/62 68/101/62
f 78/100/63 61/99/63 54/82/63 73/81/63
f 98/96/64 62/95/64 52/111/64 94/112/64
f 27/6/65 78/100/65 73/81/65 8/7/65
f 44/113/66 82/80/66 68/101/66 7/72/66
f 34/114/67 80/88/67 67/110/67 4/115/67
f 20/34/68 77/104/68 74/97/68 11/35/68
f 41/116/69 81/84/69 75/85/69 14/117/69
f 31/118/70 79/92/70 76/77/70 13/119/70
f 7/72/71 68/101/71 77/104/71 20/34/71
f 11/35/72 74/97/72 78/100/72 27/6/72
f 3/120/73 72/89/73 79/92/73 31/118/73
f 14/117/74 75/85/74 80/88/74 34/114/74
f 8/7/75 73/81/75 81/84/75 41/116/75
f 13/119/76 76/77/76 82/80/76 44/113/76
f 56/94/77 69/40/77 71/1/77 62/95/77
f 51/106/78 72/69/78 70/37/78 59/107/78
f 59/107/79 70/37/79 69/40/79 56/94/79
f 62/95/80 71/1/80 67/4/80 52/111/80
f 25/121/81 98/96/81 94/112/81 2/122/81
f 22/123/82 97/108/82 96/93/82 9/124/82
f 1/125/83 83/105/83 97/108/83 22/123/83
f 9/124/84 96/93/84 98/96/84 25/121/84
f 58/78/85 87/56/85 93/17/85 66/79/85
f 54/82/86 84/12/86 92/49/86 65/83/86
f 57/86/87 86/52/87 91/21/87 64/87/87
f 51/90/88 83/75/88 90/53/88 63/91/88
f 55/98/89 85/32/89 89/9/89 61/99/89
f 53/102/90 95/20/90 88/29/90 60/103/90
f 63/91/91 90/53/91 87/56/91 58/78/91
f 65/83/92 92/49/92 86/52/92 57/86/92
f 60/103/93 88/29/93 85/32/93 55/98/93
f 64/87/94 91/21/94 94/24/94 52/109/94
f 66/79/95 93/17/95 95/20/95 53/102/95
f 61/99/96 89/9/96 84/12/96 54/82/96
